<?xml version="1.0" encoding="UTF-8"?> <svg xmlns="http://www.w3.org/2000/svg" viewBox="0 0 378.93 266.56"> <defs> <style>.cls-1{fill:#fff;}</style> </defs> <g id="Layer_2" data-name="Layer 2"> <g id="Layer_1-2" data-name="Layer 1"> <path class="cls-1" d="M138.36,123.72v47c0,1.95-.57,2.22-2.3,2a114.34,114.34,0,0,1-47.92-18.52,193.22,193.22,0,0,1-60.42-63.1A188.46,188.46,0,0,1,2,22.4,180.3,180.3,0,0,1,0,1.65C0,.66,0-.07,1.38,0,30.21,1.39,58.89,4.68,86,14.88a85.54,85.54,0,0,1,44.36,36.38,55.38,55.38,0,0,1,8.43,30.67c-.26,14,0,27.95,0,41.95Z"></path> <path class="cls-1" d="M240.23,123.72c0-13.84.23-27.68,0-41.52a57.07,57.07,0,0,1,9.7-32.93,87.27,87.27,0,0,1,44.35-34.89A223.85,223.85,0,0,1,339,3.53,347.18,347.18,0,0,1,376.25.08c2.8,0,2.76,0,2.65,2.72C377,42.52,362.68,77.6,339,109.08a181.94,181.94,0,0,1-55.44,49.53,108.27,108.27,0,0,1-40.41,13.92c-2.45.3-2.45.34-2.45-2.11v-46.7Z"></path> <path class="cls-1" d="M136.45,179.31a84,84,0,0,0,2,8.86,50.83,50.83,0,0,0,25,31.94,59.2,59.2,0,0,0,31.39,6.09,51.66,51.66,0,0,0,25.31-7.44,48.38,48.38,0,0,0,21.2-31.66c.61-2.57,1-5.18,1.46-8l8.81,7.44c9.66,8.17,19.17,16.37,29.06,24.5a1.84,1.84,0,0,1,.72,2.5,1.64,1.64,0,0,1-.14.22,89.63,89.63,0,0,1-45.66,43.86,112.94,112.94,0,0,1-56.47,8.28,105,105,0,0,1-39.19-10.73A91.48,91.48,0,0,1,98.84,214.7a2.44,2.44,0,0,1,.21-3.46,2,2,0,0,1,.55-.37q17.66-15.08,35.2-30.21Z"></path> <path class="cls-1" d="M188.85,50.5a38.34,38.34,0,1,1-38.33,38.34A38.33,38.33,0,0,1,188.85,50.5Z"></path> </g> </g> </svg> 