<?xml version="1.0" encoding="UTF-8"?> <svg xmlns="http://www.w3.org/2000/svg" viewBox="0 0 482.94 69.58"> <defs> <style>.cls-1{fill:#001b71;}.cls-2{fill:#ea0029;}.cls-3{fill:#0269af;}.cls-4{fill:#089bd8;}</style> </defs> <g id="Layer_2" data-name="Layer 2"> <g id="Layer_1-2" data-name="Layer 1"> <polygon class="cls-1" points="22.42 4.11 22.42 28.32 16.45 28.32 16.45 10.46 5.97 10.46 5.97 28.32 0 28.32 0 4.11 22.42 4.11"></polygon> <path class="cls-1" d="M52.4,11a12.85,12.85,0,0,1,1,5.17,12.82,12.82,0,0,1-1,5.17,12.56,12.56,0,0,1-2.7,4A12.34,12.34,0,0,1,45.8,28a11.77,11.77,0,0,1-4.61.94,10.51,10.51,0,0,1-4.58-.92,4.86,4.86,0,0,1-2.51-2.28V38.33h-6V4.11h5.78V6.65a4.91,4.91,0,0,1,2.56-2.28,10.8,10.8,0,0,1,4.63-.91,12.23,12.23,0,0,1,4.68.91A11.91,11.91,0,0,1,49.7,7a12.78,12.78,0,0,1,2.7,4M46.88,18.8a6.61,6.61,0,0,0,.52-2.61,6.39,6.39,0,0,0-.52-2.58,5.85,5.85,0,0,0-1.43-2,6.35,6.35,0,0,0-2.21-1.32,8.35,8.35,0,0,0-2.85-.47,8.45,8.45,0,0,0-4,.92A4.66,4.66,0,0,0,34.1,13v6.44a4.69,4.69,0,0,0,2.3,2.27,8.33,8.33,0,0,0,4,.92,8.12,8.12,0,0,0,2.85-.47,6.48,6.48,0,0,0,2.21-1.31,6,6,0,0,0,1.43-2.05"></path> <polygon class="cls-1" points="63.52 4.11 63.52 18.64 74.47 4.11 80.44 4.11 80.44 28.32 74.56 28.32 74.56 13.79 63.61 28.32 57.64 28.32 57.64 4.11 63.52 4.11"></polygon> <path class="cls-1" d="M110.24,16.24a12.4,12.4,0,0,1-1,5.1,12.71,12.71,0,0,1-2.79,4A13.18,13.18,0,0,1,102.34,28a12.81,12.81,0,0,1-9.78,0,13,13,0,0,1-4.06-2.65,12.58,12.58,0,0,1-2.8-4,12.4,12.4,0,0,1-1-5.1,12.47,12.47,0,0,1,1-5.08,12.85,12.85,0,0,1,6.86-6.74,12.93,12.93,0,0,1,9.78,0,12.76,12.76,0,0,1,6.86,6.74,12.48,12.48,0,0,1,1,5.08m-19-2.61a6.61,6.61,0,0,0-.52,2.61,6.39,6.39,0,0,0,.52,2.58,6,6,0,0,0,1.43,2,6.59,6.59,0,0,0,2.17,1.31,7.28,7.28,0,0,0,2.65.47,7.1,7.1,0,0,0,2.63-.47,6.56,6.56,0,0,0,2.14-1.31,6.35,6.35,0,0,0,1.46-2,6.08,6.08,0,0,0,.54-2.58,6.29,6.29,0,0,0-.54-2.61,6.18,6.18,0,0,0-1.46-2,6.42,6.42,0,0,0-2.14-1.32,7.31,7.31,0,0,0-2.63-.47,7.5,7.5,0,0,0-2.65.47,6.45,6.45,0,0,0-2.17,1.32,5.83,5.83,0,0,0-1.43,2"></path> <path class="cls-1" d="M138.64,11a13,13,0,0,1,1,5.17,13,13,0,0,1-1,5.17,12.75,12.75,0,0,1-2.71,4A12.12,12.12,0,0,1,132,28a11.72,11.72,0,0,1-4.6.94,10.45,10.45,0,0,1-4.58-.92,4.92,4.92,0,0,1-2.52-2.28V38.33h-6V4.11h5.78V6.65a4.91,4.91,0,0,1,2.56-2.28,10.84,10.84,0,0,1,4.63-.91,12.23,12.23,0,0,1,4.68.91A11.71,11.71,0,0,1,135.93,7a13,13,0,0,1,2.71,4m-5.53,7.78a6.44,6.44,0,0,0,.52-2.61,6.23,6.23,0,0,0-.52-2.58,5.85,5.85,0,0,0-1.43-2,6.35,6.35,0,0,0-2.21-1.32,8.33,8.33,0,0,0-2.84-.47,8.46,8.46,0,0,0-4,.92,4.7,4.7,0,0,0-2.3,2.28v6.44a4.73,4.73,0,0,0,2.3,2.27,8.34,8.34,0,0,0,4,.92,8.1,8.1,0,0,0,2.84-.47,6.48,6.48,0,0,0,2.21-1.31,6,6,0,0,0,1.43-2.05"></path> <polygon class="cls-1" points="149.74 4.11 149.74 18.64 160.69 4.11 166.66 4.11 166.66 28.32 160.78 28.32 160.78 13.79 149.83 28.32 143.86 28.32 143.86 4.11 149.74 4.11"></polygon> <polygon class="cls-1" points="191.54 10.46 184.07 10.46 184.07 28.32 178.1 28.32 178.1 10.46 170.63 10.46 170.63 4.11 191.54 4.11 191.54 10.46"></polygon> <path class="cls-1" d="M207.39,23a11.52,11.52,0,0,0,4.32-.82A7.07,7.07,0,0,0,214.82,20l1.83,4.61a8.67,8.67,0,0,1-3.6,3.15A12.69,12.69,0,0,1,207.2,29a14.35,14.35,0,0,1-5.14-.9,12.09,12.09,0,0,1-4.12-2.53,11.63,11.63,0,0,1-2.72-4,13.58,13.58,0,0,1-1-5.31,13.76,13.76,0,0,1,.87-4.89,12.42,12.42,0,0,1,2.49-4.06,11.86,11.86,0,0,1,3.9-2.8,12.34,12.34,0,0,1,5.15-1,11.06,11.06,0,0,1,4.86,1,11.6,11.6,0,0,1,3.72,2.82,13.27,13.27,0,0,1,2.37,4.07,14,14,0,0,1,.85,4.84c0,.34,0,.71,0,1.1a4.66,4.66,0,0,1-.12,1H200.34a4.76,4.76,0,0,0,2.35,3.51,9.36,9.36,0,0,0,4.7,1.1m4.94-9.49a4,4,0,0,0-1.88-2.94,7,7,0,0,0-3.81-1,7.74,7.74,0,0,0-3.95,1,4.17,4.17,0,0,0-2.11,2.94Z"></path> <polygon class="cls-1" points="242.04 10.46 234.56 10.46 234.56 28.32 228.59 28.32 228.59 10.46 221.12 10.46 221.12 4.11 242.04 4.11 242.04 10.46"></polygon> <path class="cls-2" d="M253.68,9.07a4.75,4.75,0,0,0-1.62.27,5.41,5.41,0,0,0-1.35.71,5.87,5.87,0,0,0-1.1,1,7.7,7.7,0,0,0-.86,1.22l-2.14-3.65a6,6,0,0,1,.93-2A7.2,7.2,0,0,1,249.17,5a8,8,0,0,1,2.21-1.09,8.5,8.5,0,0,1,2.71-.41,9.15,9.15,0,0,1,3.35.57,7.07,7.07,0,0,1,2.44,1.59,6.78,6.78,0,0,1,1.48,2.37,8.21,8.21,0,0,1,.51,2.91,9.16,9.16,0,0,1-.3,2.42,9.72,9.72,0,0,1-.9,2.15,14.58,14.58,0,0,1-1.47,2.13c-.59.72-1.26,1.51-2,2.37l-2.44,2.74h7.61v5.55H246.78V24l6.94-7.54L255,15.06a10.25,10.25,0,0,0,.9-1.17,5,5,0,0,0,.54-1.08,3.34,3.34,0,0,0,.19-1.17,2.43,2.43,0,0,0-.8-1.83,3,3,0,0,0-2.15-.74"></path> <path class="cls-2" d="M272.66,4.45a13.4,13.4,0,0,1,9.81,0,12.8,12.8,0,0,1,4.08,2.62,12.44,12.44,0,0,1,2.77,4,12.87,12.87,0,0,1,1,5.13,12.81,12.81,0,0,1-1,5.14A12.31,12.31,0,0,1,282.47,28a13.27,13.27,0,0,1-9.81,0,12.34,12.34,0,0,1-6.84-6.62,12.65,12.65,0,0,1-1-5.14,12.7,12.7,0,0,1,1-5.13,12.28,12.28,0,0,1,2.77-4,12.65,12.65,0,0,1,4.07-2.62m4.91,18.9a8.11,8.11,0,0,0,2.93-.53,7.1,7.1,0,0,0,2.38-1.46,6.79,6.79,0,0,0,1.58-2.24,7.18,7.18,0,0,0,.58-2.9,7.28,7.28,0,0,0-.58-2.89,6.87,6.87,0,0,0-1.58-2.26,7.44,7.44,0,0,0-2.38-1.46,8.6,8.6,0,0,0-5.89,0,7.57,7.57,0,0,0-2.36,1.46,7,7,0,0,0-1.58,2.26,7.27,7.27,0,0,0-.57,2.89,7.18,7.18,0,0,0,.57,2.9,6.93,6.93,0,0,0,1.58,2.24,7.21,7.21,0,0,0,2.36,1.46,8.15,8.15,0,0,0,3,.53"></path> <path class="cls-2" d="M298.81,23.37a4.16,4.16,0,0,0,2.63-.78,2.53,2.53,0,0,0,1-2.1,2.28,2.28,0,0,0-.89-1.88,3.89,3.89,0,0,0-2.42-.69,6.42,6.42,0,0,0-1.81.23,4.12,4.12,0,0,0-1.14.51l-.84-3.79,4.16-5.21h-6.7V4.11h13.57v4l-4.13,5.08a7.82,7.82,0,0,1,1.85.69,6.61,6.61,0,0,1,1.77,1.35,6.94,6.94,0,0,1,1.34,2.19,8.61,8.61,0,0,1,.52,3.18,8.62,8.62,0,0,1-.62,3.25,7.79,7.79,0,0,1-1.8,2.65,8.43,8.43,0,0,1-2.8,1.8,9.81,9.81,0,0,1-3.68.66,10.54,10.54,0,0,1-2.74-.34,8.64,8.64,0,0,1-2.13-.9,6.58,6.58,0,0,1-1.52-1.23,4.43,4.43,0,0,1-.88-1.39l1.22-4.47a8.31,8.31,0,0,0,2.4,2,7.45,7.45,0,0,0,3.65.8"></path> <path class="cls-2" d="M318,4.45a13.4,13.4,0,0,1,9.81,0,12.8,12.8,0,0,1,4.08,2.62,12.41,12.41,0,0,1,2.76,4,12.7,12.7,0,0,1,1,5.13,12.65,12.65,0,0,1-1,5.14,12.48,12.48,0,0,1-2.76,4A12.61,12.61,0,0,1,327.8,28,13.27,13.27,0,0,1,318,28a12.34,12.34,0,0,1-6.84-6.62,12.65,12.65,0,0,1-1-5.14,12.7,12.7,0,0,1,1-5.13,12.28,12.28,0,0,1,2.77-4A12.65,12.65,0,0,1,318,4.45m4.91,18.9a8.11,8.11,0,0,0,2.93-.53,7.1,7.1,0,0,0,2.38-1.46,6.79,6.79,0,0,0,1.58-2.24,7.18,7.18,0,0,0,.58-2.9,7.28,7.28,0,0,0-.58-2.89,6.87,6.87,0,0,0-1.58-2.26,7.44,7.44,0,0,0-2.38-1.46,8.6,8.6,0,0,0-5.89,0,7.57,7.57,0,0,0-2.36,1.46A7,7,0,0,0,316,13.33a7.27,7.27,0,0,0-.57,2.89,7.18,7.18,0,0,0,.57,2.9,6.93,6.93,0,0,0,1.58,2.24,7.21,7.21,0,0,0,2.36,1.46,8.15,8.15,0,0,0,3,.53"></path> <polygon class="cls-2" points="348.52 0 343.67 0 338.08 9.68 342.92 9.68 348.52 0"></polygon> <polygon class="cls-2" points="343.67 0 348.52 0 354.11 9.68 349.27 9.68 343.67 0"></polygon> <polygon class="cls-2" points="17.26 52.64 17.26 59.83 22.68 52.64 25.64 52.64 25.64 64.63 22.73 64.63 22.73 57.44 17.3 64.63 14.35 64.63 14.35 52.64 17.26 52.64"></polygon> <path class="cls-2" d="M28.69,61.49c.24-.42.48-.9.72-1.42A15.58,15.58,0,0,0,30,58.31a16.9,16.9,0,0,0,.44-2.08,16.58,16.58,0,0,0,.16-2.4V52.64H39.3v8.85H41v6.33H38.11V64.63H30.32v3.19H27.45V61.49Zm7.65,0V55.78H33.29a18.07,18.07,0,0,1-.63,3.39,14.26,14.26,0,0,1-.9,2.32Z"></path> <path class="cls-2" d="M48.75,62a5.77,5.77,0,0,0,2.14-.4,3.55,3.55,0,0,0,1.53-1.09l.91,2.29a4.16,4.16,0,0,1-1.78,1.55,6.24,6.24,0,0,1-2.9.63,7,7,0,0,1-2.54-.44,5.75,5.75,0,0,1-2-1.26,5.58,5.58,0,0,1-1.35-2,7.17,7.17,0,0,1-.06-5.05,6.05,6.05,0,0,1,1.24-2,5.76,5.76,0,0,1,1.93-1.38,6.11,6.11,0,0,1,2.55-.51,5.5,5.5,0,0,1,4.24,1.92,6.31,6.31,0,0,1,1.18,2,6.89,6.89,0,0,1,.42,2.4c0,.17,0,.35,0,.54a2.34,2.34,0,0,1-.05.5H45.26a2.37,2.37,0,0,0,1.16,1.74,4.67,4.67,0,0,0,2.33.54m2.44-4.7a2,2,0,0,0-.93-1.45,3.41,3.41,0,0,0-1.88-.5,3.76,3.76,0,0,0-2,.5,2.11,2.11,0,0,0-1.05,1.45Z"></path> <path class="cls-2" d="M68.45,56.06a6.54,6.54,0,0,1-1.34,7.13,6.19,6.19,0,0,1-1.93,1.3A5.77,5.77,0,0,1,62.9,65a5.22,5.22,0,0,1-2.27-.45,2.42,2.42,0,0,1-1.25-1.13v6.21h-3V52.64h2.86V53.9a2.4,2.4,0,0,1,1.27-1.13,5.38,5.38,0,0,1,2.29-.45,6.11,6.11,0,0,1,2.32.45,5.88,5.88,0,0,1,1.94,1.29,6.5,6.5,0,0,1,1.34,2m-2.74,3.85a3.31,3.31,0,0,0,0-2.57,3,3,0,0,0-.71-1,3.19,3.19,0,0,0-1.09-.65,4.52,4.52,0,0,0-3.39.22A2.35,2.35,0,0,0,59.38,57v3.19a2.35,2.35,0,0,0,1.14,1.13,4.52,4.52,0,0,0,3.39.22A3.19,3.19,0,0,0,65,60.93a2.84,2.84,0,0,0,.71-1"></path> <path class="cls-2" d="M71,54.43a3.49,3.49,0,0,1,.82-.9,5.21,5.21,0,0,1,1.11-.67,5.88,5.88,0,0,1,1.29-.4,6.49,6.49,0,0,1,1.39-.14,6.65,6.65,0,0,1,2.15.32,5,5,0,0,1,1.66.93,4.21,4.21,0,0,1,1.09,1.5,5.26,5.26,0,0,1,.38,2v7.52H78v-1a2.73,2.73,0,0,1-1.38,1,5.21,5.21,0,0,1-1.91.35A5.12,5.12,0,0,1,73,64.67a4.21,4.21,0,0,1-1.39-.78,3.3,3.3,0,0,1-.91-1.23A3.94,3.94,0,0,1,70.37,61a3.51,3.51,0,0,1,1.42-2.92,4.61,4.61,0,0,1,1.5-.76,6.09,6.09,0,0,1,1.76-.25,5.85,5.85,0,0,1,1.89.26,2.42,2.42,0,0,1,1,.57V57.6a2.19,2.19,0,0,0-.68-1.68,2.89,2.89,0,0,0-2-.63,4.65,4.65,0,0,0-2.06.45,4,4,0,0,0-1.45,1.11Zm6.93,5.89a1.48,1.48,0,0,0-.81-.57,4,4,0,0,0-1.44-.24,3.28,3.28,0,0,0-1.75.37,1.11,1.11,0,0,0-.58,1,1.09,1.09,0,0,0,.59,1,4,4,0,0,0,3.16.07,1.66,1.66,0,0,0,.83-.71Z"></path> <polygon class="cls-2" points="94.46 52.64 97.32 52.64 99.2 64.63 96.27 64.63 95.23 58.3 92.43 64.63 90.06 64.63 87.27 58.3 86.19 64.63 83.19 64.63 85.06 52.64 87.71 52.64 91.08 60.3 94.46 52.64"></polygon> <polygon class="cls-2" points="104.51 52.64 104.51 59.83 109.93 52.64 112.89 52.64 112.89 64.63 109.98 64.63 109.98 57.44 104.56 64.63 101.6 64.63 101.6 52.64 104.51 52.64"></polygon> <path class="cls-2" d="M131.7,62.81A4.29,4.29,0,0,1,130,64.33a6.57,6.57,0,0,1-5.2.16,6.39,6.39,0,0,1-2-1.3,6.08,6.08,0,0,1-1.39-2,6.68,6.68,0,0,1,0-5.12,6.14,6.14,0,0,1,1.39-2,6,6,0,0,1,2-1.29,6.34,6.34,0,0,1,2.38-.45,5.91,5.91,0,0,1,2.78.62,4.18,4.18,0,0,1,1.69,1.49l-.84,2.47a4.31,4.31,0,0,0-1.32-1,4.37,4.37,0,0,0-2-.44,3.78,3.78,0,0,0-2.61.87,2.93,2.93,0,0,0-1,2.29,3,3,0,0,0,1,2.31,3.73,3.73,0,0,0,2.61.88,4.13,4.13,0,0,0,2-.46,5,5,0,0,0,1.35-1Z"></path> <polygon class="cls-2" points="143.19 55.78 139.49 55.78 139.49 64.63 136.54 64.63 136.54 55.78 132.84 55.78 132.84 52.64 143.19 52.64 143.19 55.78"></polygon> <path class="cls-2" d="M145,54.43a3.53,3.53,0,0,1,.83-.9,4.9,4.9,0,0,1,1.1-.67,6.23,6.23,0,0,1,1.29-.4,6.49,6.49,0,0,1,1.39-.14,6.61,6.61,0,0,1,2.15.32,5.12,5.12,0,0,1,1.67.93,4.31,4.31,0,0,1,1.08,1.5,5.26,5.26,0,0,1,.38,2v7.52H152v-1a2.71,2.71,0,0,1-1.37,1,5.25,5.25,0,0,1-1.91.35,5.14,5.14,0,0,1-1.75-.28,4.06,4.06,0,0,1-1.38-.78,3.22,3.22,0,0,1-.92-1.23,3.94,3.94,0,0,1-.33-1.64,3.54,3.54,0,0,1,.39-1.69,3.61,3.61,0,0,1,1-1.23,4.82,4.82,0,0,1,1.5-.76,6.09,6.09,0,0,1,1.76-.25,5.88,5.88,0,0,1,1.9.26,2.49,2.49,0,0,1,1,.57V57.6a2.16,2.16,0,0,0-.69-1.68,2.88,2.88,0,0,0-2-.63,4.62,4.62,0,0,0-2.06.45,4,4,0,0,0-1.46,1.11Zm6.94,5.89a1.55,1.55,0,0,0-.82-.57,4,4,0,0,0-1.44-.24,3.28,3.28,0,0,0-1.75.37,1.11,1.11,0,0,0-.58,1,1.09,1.09,0,0,0,.59,1,3.36,3.36,0,0,0,1.72.36,3.31,3.31,0,0,0,1.44-.29,1.65,1.65,0,0,0,.84-.71Z"></path> <polygon class="cls-2" points="160.72 52.64 160.72 56.9 165.98 56.9 165.98 52.64 168.93 52.64 168.93 64.63 165.98 64.63 165.98 60.04 160.72 60.04 160.72 64.63 157.76 64.63 157.76 52.64 160.72 52.64"></polygon> <path class="cls-2" d="M183.8,58.65a6.18,6.18,0,0,1-1.89,4.51,6.54,6.54,0,0,1-2,1.32,6.47,6.47,0,0,1-4.84,0,6.49,6.49,0,0,1-2-1.32,6.23,6.23,0,0,1-1.38-2,6,6,0,0,1-.52-2.52,6.08,6.08,0,0,1,.52-2.52,6.43,6.43,0,0,1,1.38-2,6.34,6.34,0,0,1,8.87,0,6.43,6.43,0,0,1,1.38,2,6.24,6.24,0,0,1,.51,2.52m-9.42-1.3a3.28,3.28,0,0,0-.26,1.3,3.18,3.18,0,0,0,.26,1.28,3.09,3.09,0,0,0,.71,1,3.3,3.3,0,0,0,1.07.65,3.8,3.8,0,0,0,1.31.23,3.76,3.76,0,0,0,1.31-.23,3.48,3.48,0,0,0,1.06-.65,3.28,3.28,0,0,0,.72-1,3,3,0,0,0,.27-1.28,3.12,3.12,0,0,0-.27-1.3,3.2,3.2,0,0,0-.72-1,3.48,3.48,0,0,0-1.06-.65,3.76,3.76,0,0,0-1.31-.23,3.8,3.8,0,0,0-1.31.23,3.3,3.3,0,0,0-1.07.65,3,3,0,0,0-.71,1"></path> <path class="cls-2" d="M190.62,52.64a6.6,6.6,0,0,1,1.7.21,3.86,3.86,0,0,1,1.37.64A3.06,3.06,0,0,1,195,56.06a2.91,2.91,0,0,1-.22,1.23,3.16,3.16,0,0,1-.66.89,3.64,3.64,0,0,1,1.1,1.11A3,3,0,0,1,195.6,61a3.27,3.27,0,0,1-.36,1.56,3.52,3.52,0,0,1-1,1.14,4.45,4.45,0,0,1-1.41.71,5.58,5.58,0,0,1-1.69.25H186v-12Zm-1.77,2.75v2H191a1.15,1.15,0,0,0,.84-.3,1,1,0,0,0,.3-.7,1,1,0,0,0-.3-.72,1.19,1.19,0,0,0-.87-.3Zm0,4.42v2.07h2.73a1.09,1.09,0,0,0,.81-.29,1,1,0,0,0,0-1.47,1.1,1.1,0,0,0-.84-.31Z"></path> <path class="cls-2" d="M206.47,52.64v12h-2.95V61.07h-1l-2.42,3.56H196.7l2.72-4a4,4,0,0,1-1.63-1.46,4.18,4.18,0,0,1-.58-2.26,4.43,4.43,0,0,1,.35-1.79,3.93,3.93,0,0,1,.95-1.34,4.48,4.48,0,0,1,1.44-.84,5.57,5.57,0,0,1,1.8-.29Zm-4.95,3a1.39,1.39,0,0,0-1,.38,1.28,1.28,0,0,0-.37.92,1.12,1.12,0,0,0,.39.9,1.49,1.49,0,0,0,1,.34h2V55.62Z"></path> <polygon class="cls-2" points="218.76 55.78 215.06 55.78 215.06 64.63 212.1 64.63 212.1 55.78 208.4 55.78 208.4 52.64 218.76 52.64 218.76 55.78"></polygon> <path class="cls-2" d="M230.65,62.81a4.25,4.25,0,0,1-1.74,1.52,6.57,6.57,0,0,1-5.2.16,6.56,6.56,0,0,1-2-1.3,6.21,6.21,0,0,1-1.38-2,6.39,6.39,0,0,1,1.38-7.12,6.18,6.18,0,0,1,2-1.29,6.34,6.34,0,0,1,2.38-.45,5.91,5.91,0,0,1,2.78.62,4.18,4.18,0,0,1,1.69,1.49l-.84,2.47a4.31,4.31,0,0,0-1.32-1,4.37,4.37,0,0,0-2-.44,3.78,3.78,0,0,0-2.61.87,2.94,2.94,0,0,0-1,2.29,3,3,0,0,0,1,2.31,3.73,3.73,0,0,0,2.61.88,4.16,4.16,0,0,0,2-.46,5,5,0,0,0,1.35-1Z"></path> <path class="cls-2" d="M241.57,52.64v12h-3V61.07h-1l-2.41,3.56h-3.43l2.73-4a3.93,3.93,0,0,1-1.63-1.46,4.18,4.18,0,0,1-.58-2.26,4.43,4.43,0,0,1,.34-1.79,4.1,4.1,0,0,1,1-1.34,4.27,4.27,0,0,1,1.44-.84,5.55,5.55,0,0,1,1.79-.29Zm-5,3a1.38,1.38,0,0,0-1,.38,1.28,1.28,0,0,0-.37.92,1.12,1.12,0,0,0,.39.9,1.46,1.46,0,0,0,1,.34h2V55.62Z"></path> <polygon class="cls-2" points="7.83 52.65 12.79 64.64 9.23 64.63 6.41 57.6 3.6 64.63 0.03 64.63 5 52.64 7.83 52.65"></polygon> <path class="cls-3" d="M420.19,32.27c0,4.08,0,8.17,0,12.25,0,.51-.15.58-.6.52a29.82,29.82,0,0,1-12.5-4.83,50.4,50.4,0,0,1-15.76-16.46,49.17,49.17,0,0,1-6.71-17.91,46.71,46.71,0,0,1-.52-5.41c0-.26,0-.45.36-.43,7.52.36,15,1.22,22.07,3.88a22.31,22.31,0,0,1,11.57,9.49,14.45,14.45,0,0,1,2.2,8c-.07,3.65,0,7.29,0,10.94Z"></path> <path class="cls-3" d="M446.76,32.27c0-3.61.06-7.22,0-10.83a14.9,14.9,0,0,1,2.53-8.59,22.76,22.76,0,0,1,11.57-9.1A58.19,58.19,0,0,1,472.52.92a90.25,90.25,0,0,1,9.72-.9c.73,0,.72,0,.69.71-.49,10.36-4.23,19.51-10.42,27.72a47.45,47.45,0,0,1-14.46,12.92A28.24,28.24,0,0,1,447.51,45c-.64.08-.64.09-.64-.55V32.27Z"></path> <path class="cls-4" d="M419.69,46.77a22.35,22.35,0,0,0,.52,2.31,13.26,13.26,0,0,0,6.52,8.33A15.45,15.45,0,0,0,434.92,59a13.48,13.48,0,0,0,6.6-1.94,12.62,12.62,0,0,0,5.53-8.26c.16-.67.25-1.35.38-2.09l2.3,1.94c2.52,2.13,5,4.27,7.58,6.39a.48.48,0,0,1,.15.71,23.38,23.38,0,0,1-11.91,11.44,29.47,29.47,0,0,1-14.73,2.16,27.37,27.37,0,0,1-10.22-2.8A23.86,23.86,0,0,1,409.88,56a.64.64,0,0,1,.2-1c3.07-2.62,6.12-5.25,9.18-7.88Z"></path> <path class="cls-3" d="M433.36,13.17a10,10,0,1,1-10,10A10,10,0,0,1,433.36,13.17Z"></path> </g> </g> </svg> 